<?xml version="1.0" encoding="utf-8"?>
<!-- Generator: Adobe Illustrator 25.0.1, SVG Export Plug-In . SVG Version: 6.00 Build 0)  -->
<svg version="1.1" id="레이어_1" xmlns="http://www.w3.org/2000/svg" xmlns:xlink="http://www.w3.org/1999/xlink" x="0px"
	 y="0px" viewBox="0 0 720 720" style="enable-background:new 0 0 720 720;" xml:space="preserve">
<style type="text/css">
	.st0{fill:none;}
	.st1{fill:#1C2D41;}
</style>
<g>
	<rect x="160" y="406" class="st0" width="98" height="165"/>
	<rect x="258" y="477" class="st0" width="78" height="94"/>
	<rect x="160" y="313" class="st0" width="176" height="93"/>
	<rect x="359" y="282" class="st0" width="97" height="289"/>
	<rect x="477" y="251" class="st0" width="98" height="320"/>
	<rect x="359" y="153" class="st0" width="216" height="98"/>
	<rect x="160" y="153" class="st0" width="98" height="98"/>
</g>
<g transform="translate(0.000000,720.000000) scale(0.100000,-0.100000)">
	<path class="st1" d="M1189,6884c-427-77-778-423-869-858c-19-88-20-158-20-2426s1-2338,20-2426c92-440,444-784,877-859
		c130-23,4677-23,4806,0c434,76,785,419,878,860c18,87,19,168,19,2425s-1,2338-19,2425c-81,381-342,681-710,815
		c-173,63-27,60-2580,59C1664,6898,1252,6896,1189,6884z M2580,5180v-490h-490h-490v490v490h490h490V5180z M5750,3580V1490h-490
		h-490v1600v1600h-590h-590v490v490h1080h1080V3580z M4560,2935V1490h-485h-485v1445v1445h485h485V2935z M3360,3605v-465h-390h-390
		v-355v-355h390h390v-470v-470h-880h-880v1290v1290h880h880V3605z"/>
</g>
</svg>
